<svg width="1100" height="1022" viewBox="0 0 1100 1022" fill="none" xmlns="http://www.w3.org/2000/svg">
    <g filter="url(#filter0_f_665_3)">
        <path d="M265.36 486.251C401.659 439.886 245.218 554.13 210.623 576.663C167.751 604.587 115.081 614.812 79.5182 577.958C50.4823 547.869 49.2042 510.394 65.4031 471.901C95.7367 399.82 142.627 528.002 265.36 486.251Z"
              fill="#FFE628" fill-opacity="0.2"/>
        <path d="M375.877 183.018C512.176 136.652 476.165 291.933 441.569 314.467C398.697 342.391 344.845 334.455 309.282 297.602C280.246 267.512 358.251 291.876 374.449 253.383C404.783 181.302 253.143 224.769 375.877 183.018Z"
              fill="#FFE628" fill-opacity="0.2"/>
        <path d="M212.341 284.51C257.538 267.49 316.041 356.422 279.757 388.265C267.587 398.946 257.437 402.685 241.265 403.718C206.868 405.916 175.491 383.621 171.671 349.382C168.355 319.651 184.343 295.053 212.341 284.51Z"
              fill="#FFE628" fill-opacity="0.2"/>
        <path d="M606.385 309.187C311.868 413.45 648.27 161.355 722.735 111.533C815.017 49.7906 929.031 26.1931 1007.19 105.211C1071 169.725 1074.78 251.008 1040.66 334.97C976.776 492.194 871.588 215.302 606.385 309.187Z"
              fill="#FFE628" fill-opacity="0.2"/>
        <path d="M374.706 970.146C80.1889 1074.41 154.165 736.493 228.63 686.671C320.911 624.928 437.979 640.705 516.138 719.723C579.952 784.237 410.033 733.458 375.915 817.42C312.027 974.644 639.909 876.261 374.706 970.146Z"
              fill="#FFE628" fill-opacity="0.2"/>
        <path d="M726.846 745.535C629.227 783.678 499.894 592.268 577.774 522.197C603.895 498.696 625.819 490.31 660.883 487.634C735.464 481.943 804.15 529.482 813.356 603.675C821.35 668.101 787.317 721.906 726.846 745.535Z"
              fill="#FFE628" fill-opacity="0.2"/>
    </g>
    <defs>
        <filter id="filter0_f_665_3" x="0" y="0" width="1117" height="1045" filterUnits="userSpaceOnUse"
                color-interpolation-filters="sRGB">
            <feFlood flood-opacity="0" result="BackgroundImageFix"/>
            <feBlend mode="normal" in="SourceGraphic" in2="BackgroundImageFix" result="shape"/>
            <feGaussianBlur stdDeviation="10" result="effect1_foregroundBlur_665_3"/>
        </filter>
    </defs>
</svg>
