<svg width="100%" height="auto" viewBox="0 0 486 1069" fill="none" xmlns="http://www.w3.org/2000/svg">
    <g clip-path="url(#clip0_665_4)">
        <rect width="486" height="1098" fill="#EEEEEE"/>
        <mask id="mask0_665_4" style="mask-type:alpha" maskUnits="userSpaceOnUse" x="0" y="0" width="486" height="1098">
            <rect width="486" height="1098" fill="#EEEEEE"/>
        </mask>
        <g mask="url(#mask0_665_4)">
            <line y1="-0.5" x2="454.708" y2="-0.5"
                  transform="matrix(0.589727 0.807603 -0.45852 0.888684 -253.616 733.77)" stroke="#232323"
                  stroke-dasharray="2 2"/>
            <line y1="-0.5" x2="454.708" y2="-0.5"
                  transform="matrix(0.589727 0.807603 -0.45852 0.888684 -218.639 733.77)" stroke="#232323"
                  stroke-dasharray="2 2"/>
            <line y1="-0.5" x2="454.708" y2="-0.5"
                  transform="matrix(0.589727 0.807603 -0.45852 0.888684 -183.663 733.77)" stroke="#232323"
                  stroke-dasharray="2 2"/>
            <line y1="-0.5" x2="454.708" y2="-0.5"
                  transform="matrix(0.589727 0.807603 -0.45852 0.888684 -148.686 733.77)" stroke="#232323"
                  stroke-dasharray="2 2"/>
            <line y1="-0.5" x2="454.708" y2="-0.5"
                  transform="matrix(0.589727 0.807603 -0.45852 0.888684 -113.709 733.77)" stroke="#232323"
                  stroke-dasharray="2 2"/>
            <line y1="-0.5" x2="454.708" y2="-0.5"
                  transform="matrix(0.589727 0.807603 -0.45852 0.888684 -78.7329 733.77)" stroke="#232323"
                  stroke-dasharray="2 2"/>
            <line y1="-0.5" x2="454.708" y2="-0.5"
                  transform="matrix(0.589727 0.807603 -0.45852 0.888684 -43.7563 733.77)" stroke="#232323"
                  stroke-dasharray="2 2"/>
            <line y1="-0.5" x2="454.708" y2="-0.5"
                  transform="matrix(0.589727 0.807603 -0.45852 0.888684 -8.77979 733.77)" stroke="#232323"
                  stroke-dasharray="2 2"/>
            <line y1="-0.5" x2="454.708" y2="-0.5"
                  transform="matrix(0.589727 0.807603 -0.45852 0.888684 26.1968 733.77)" stroke="#232323"
                  stroke-dasharray="2 2"/>
            <line y1="-0.5" x2="454.708" y2="-0.5"
                  transform="matrix(0.589727 0.807603 -0.45852 0.888684 61.1733 733.77)" stroke="#232323"
                  stroke-dasharray="2 2"/>
            <line y1="-0.5" x2="454.708" y2="-0.5"
                  transform="matrix(0.589727 0.807603 -0.45852 0.888684 96.1499 733.77)" stroke="#232323"
                  stroke-dasharray="2 2"/>
            <line y1="-0.5" x2="454.708" y2="-0.5"
                  transform="matrix(0.589727 0.807603 -0.45852 0.888684 131.126 733.77)" stroke="#232323"
                  stroke-dasharray="2 2"/>
            <line y1="-0.5" x2="454.708" y2="-0.5"
                  transform="matrix(0.589727 0.807603 -0.45852 0.888684 166.103 733.77)" stroke="#232323"
                  stroke-dasharray="2 2"/>
            <line y1="-0.5" x2="454.708" y2="-0.5" transform="matrix(0.589727 0.807603 -0.45852 0.888684 201.08 733.77)"
                  stroke="#232323" stroke-dasharray="2 2"/>
            <line y1="-0.5" x2="454.708" y2="-0.5"
                  transform="matrix(0.589727 0.807603 -0.45852 0.888684 236.056 733.77)" stroke="#232323"
                  stroke-dasharray="2 2"/>
            <line y1="-0.5" x2="454.708" y2="-0.5"
                  transform="matrix(0.589727 0.807603 -0.45852 0.888684 271.033 733.77)" stroke="#232323"
                  stroke-dasharray="2 2"/>
            <line y1="-0.5" x2="454.708" y2="-0.5"
                  transform="matrix(0.589727 0.807603 -0.45852 0.888684 306.009 733.77)" stroke="#232323"
                  stroke-dasharray="2 2"/>
            <line y1="-0.5" x2="454.708" y2="-0.5"
                  transform="matrix(0.589727 0.807603 -0.45852 0.888684 340.985 733.77)" stroke="#232323"
                  stroke-dasharray="2 2"/>
            <line y1="-0.5" x2="454.708" y2="-0.5"
                  transform="matrix(0.589727 0.807603 -0.45852 0.888684 375.962 733.77)" stroke="#232323"
                  stroke-dasharray="2 2"/>
            <line y1="-0.5" x2="454.708" y2="-0.5"
                  transform="matrix(0.589727 0.807603 -0.45852 0.888684 410.939 733.77)" stroke="#232323"
                  stroke-dasharray="2 2"/>
            <line y1="-0.5" x2="454.708" y2="-0.5"
                  transform="matrix(0.589727 0.807603 -0.45852 0.888684 445.915 733.77)" stroke="#232323"
                  stroke-dasharray="2 2"/>
            <line y1="-0.5" x2="454.708" y2="-0.5"
                  transform="matrix(0.589727 0.807603 -0.45852 0.888684 480.892 733.77)" stroke="#232323"
                  stroke-dasharray="2 2"/>
            <line y1="-0.5" x2="454.708" y2="-0.5"
                  transform="matrix(0.589727 0.807603 -0.45852 0.888684 -241.07 367.227)" stroke="#232323"
                  stroke-dasharray="2 2"/>
            <line y1="-0.5" x2="454.708" y2="-0.5"
                  transform="matrix(0.589727 0.807603 -0.45852 0.888684 -206.094 367.227)" stroke="#232323"
                  stroke-dasharray="2 2"/>
            <line y1="-0.5" x2="454.708" y2="-0.5"
                  transform="matrix(0.589727 0.807603 -0.45852 0.888684 -171.117 367.227)" stroke="#232323"
                  stroke-dasharray="2 2"/>
            <line y1="-0.5" x2="454.708" y2="-0.5"
                  transform="matrix(0.589727 0.807603 -0.45852 0.888684 -136.141 367.227)" stroke="#232323"
                  stroke-dasharray="2 2"/>
            <line y1="-0.5" x2="454.708" y2="-0.5"
                  transform="matrix(0.589727 0.807603 -0.45852 0.888684 -101.164 367.227)" stroke="#232323"
                  stroke-dasharray="2 2"/>
            <line y1="-0.5" x2="454.708" y2="-0.5"
                  transform="matrix(0.589727 0.807603 -0.45852 0.888684 -66.1875 367.227)" stroke="#232323"
                  stroke-dasharray="2 2"/>
            <line y1="-0.5" x2="454.708" y2="-0.5"
                  transform="matrix(0.589727 0.807603 -0.45852 0.888684 -31.2109 367.227)" stroke="#232323"
                  stroke-dasharray="2 2"/>
            <line y1="-0.5" x2="454.708" y2="-0.5"
                  transform="matrix(0.589727 0.807603 -0.45852 0.888684 3.76514 367.227)" stroke="#232323"
                  stroke-dasharray="2 2"/>
            <line y1="-0.5" x2="454.708" y2="-0.5"
                  transform="matrix(0.589727 0.807603 -0.45852 0.888684 38.7422 367.227)" stroke="#232323"
                  stroke-dasharray="2 2"/>
            <line y1="-0.5" x2="454.708" y2="-0.5"
                  transform="matrix(0.589727 0.807603 -0.45852 0.888684 73.7188 367.227)" stroke="#232323"
                  stroke-dasharray="2 2"/>
            <line y1="-0.5" x2="454.708" y2="-0.5"
                  transform="matrix(0.589727 0.807603 -0.45852 0.888684 108.695 367.227)" stroke="#232323"
                  stroke-dasharray="2 2"/>
            <line y1="-0.5" x2="454.708" y2="-0.5"
                  transform="matrix(0.589727 0.807603 -0.45852 0.888684 143.672 367.227)" stroke="#232323"
                  stroke-dasharray="2 2"/>
            <line y1="-0.5" x2="454.708" y2="-0.5"
                  transform="matrix(0.589727 0.807603 -0.45852 0.888684 178.648 367.227)" stroke="#232323"
                  stroke-dasharray="2 2"/>
            <line y1="-0.5" x2="454.708" y2="-0.5"
                  transform="matrix(0.589727 0.807603 -0.45852 0.888684 213.625 367.227)" stroke="#232323"
                  stroke-dasharray="2 2"/>
            <line y1="-0.5" x2="454.708" y2="-0.5"
                  transform="matrix(0.589727 0.807603 -0.45852 0.888684 248.602 367.227)" stroke="#232323"
                  stroke-dasharray="2 2"/>
            <line y1="-0.5" x2="454.708" y2="-0.5"
                  transform="matrix(0.589727 0.807603 -0.45852 0.888684 283.578 367.227)" stroke="#232323"
                  stroke-dasharray="2 2"/>
            <line y1="-0.5" x2="454.708" y2="-0.5"
                  transform="matrix(0.589727 0.807603 -0.45852 0.888684 318.554 367.227)" stroke="#232323"
                  stroke-dasharray="2 2"/>
            <line y1="-0.5" x2="454.708" y2="-0.5"
                  transform="matrix(0.589727 0.807603 -0.45852 0.888684 353.531 367.227)" stroke="#232323"
                  stroke-dasharray="2 2"/>
            <line y1="-0.5" x2="454.708" y2="-0.5"
                  transform="matrix(0.589727 0.807603 -0.45852 0.888684 388.508 367.227)" stroke="#232323"
                  stroke-dasharray="2 2"/>
            <line y1="-0.5" x2="454.708" y2="-0.5"
                  transform="matrix(0.589727 0.807603 -0.45852 0.888684 423.484 367.227)" stroke="#232323"
                  stroke-dasharray="2 2"/>
            <line y1="-0.5" x2="454.708" y2="-0.5"
                  transform="matrix(0.589727 0.807603 -0.45852 0.888684 458.461 367.227)" stroke="#232323"
                  stroke-dasharray="2 2"/>
            <line y1="-0.5" x2="454.708" y2="-0.5" transform="matrix(0.589727 0.807603 -0.45852 0.888684 -264.388 0)"
                  stroke="#232323" stroke-dasharray="2 2"/>
            <line y1="-0.5" x2="454.708" y2="-0.5" transform="matrix(0.589727 0.807603 -0.45852 0.888684 -229.411 0)"
                  stroke="#232323" stroke-dasharray="2 2"/>
            <line y1="-0.5" x2="454.708" y2="-0.5" transform="matrix(0.589727 0.807603 -0.45852 0.888684 -194.435 0)"
                  stroke="#232323" stroke-dasharray="2 2"/>
            <line y1="-0.5" x2="454.708" y2="-0.5" transform="matrix(0.589727 0.807603 -0.45852 0.888684 -159.458 0)"
                  stroke="#232323" stroke-dasharray="2 2"/>
            <line y1="-0.5" x2="454.708" y2="-0.5" transform="matrix(0.589727 0.807603 -0.45852 0.888684 -124.481 0)"
                  stroke="#232323" stroke-dasharray="2 2"/>
            <line y1="-0.5" x2="454.708" y2="-0.5" transform="matrix(0.589727 0.807603 -0.45852 0.888684 -89.5054 0)"
                  stroke="#232323" stroke-dasharray="2 2"/>
            <line y1="-0.5" x2="454.708" y2="-0.5" transform="matrix(0.589727 0.807603 -0.45852 0.888684 -54.5283 0)"
                  stroke="#232323" stroke-dasharray="2 2"/>
            <line y1="-0.5" x2="454.708" y2="-0.5" transform="matrix(0.589727 0.807603 -0.45852 0.888684 -19.5518 0)"
                  stroke="#232323" stroke-dasharray="2 2"/>
            <line y1="-0.5" x2="454.708" y2="-0.5" transform="matrix(0.589727 0.807603 -0.45852 0.888684 15.4243 0)"
                  stroke="#232323" stroke-dasharray="2 2"/>
            <line y1="-0.5" x2="454.708" y2="-0.5" transform="matrix(0.589727 0.807603 -0.45852 0.888684 50.4014 0)"
                  stroke="#232323" stroke-dasharray="2 2"/>
            <line y1="-0.5" x2="454.708" y2="-0.5" transform="matrix(0.589727 0.807603 -0.45852 0.888684 85.3774 0)"
                  stroke="#232323" stroke-dasharray="2 2"/>
            <line y1="-0.5" x2="454.708" y2="-0.5" transform="matrix(0.589727 0.807603 -0.45852 0.888684 120.354 0)"
                  stroke="#232323" stroke-dasharray="2 2"/>
            <line y1="-0.5" x2="454.708" y2="-0.5" transform="matrix(0.589727 0.807603 -0.45852 0.888684 155.331 0)"
                  stroke="#232323" stroke-dasharray="2 2"/>
            <line y1="-0.5" x2="454.708" y2="-0.5" transform="matrix(0.589727 0.807603 -0.45852 0.888684 190.307 0)"
                  stroke="#232323" stroke-dasharray="2 2"/>
            <line y1="-0.5" x2="454.708" y2="-0.5" transform="matrix(0.589727 0.807603 -0.45852 0.888684 225.284 0)"
                  stroke="#232323" stroke-dasharray="2 2"/>
            <line y1="-0.5" x2="454.708" y2="-0.5" transform="matrix(0.589727 0.807603 -0.45852 0.888684 260.261 0)"
                  stroke="#232323" stroke-dasharray="2 2"/>
            <line y1="-0.5" x2="454.708" y2="-0.5" transform="matrix(0.589727 0.807603 -0.45852 0.888684 295.237 0)"
                  stroke="#232323" stroke-dasharray="2 2"/>
            <line y1="-0.5" x2="454.708" y2="-0.5" transform="matrix(0.589727 0.807603 -0.45852 0.888684 330.213 0)"
                  stroke="#232323" stroke-dasharray="2 2"/>
            <line y1="-0.5" x2="454.708" y2="-0.5" transform="matrix(0.589727 0.807603 -0.45852 0.888684 365.19 0)"
                  stroke="#232323" stroke-dasharray="2 2"/>
            <line y1="-0.5" x2="454.708" y2="-0.5" transform="matrix(0.589727 0.807603 -0.45852 0.888684 400.167 0)"
                  stroke="#232323" stroke-dasharray="2 2"/>
            <line y1="-0.5" x2="454.708" y2="-0.5" transform="matrix(0.589727 0.807603 -0.45852 0.888684 435.143 0)"
                  stroke="#232323" stroke-dasharray="2 2"/>
            <line y1="-0.5" x2="454.708" y2="-0.5" transform="matrix(0.589727 0.807603 -0.45852 0.888684 470.12 0)"
                  stroke="#232323" stroke-dasharray="2 2"/>
            <line y1="-0.5" x2="454.708" y2="-0.5"
                  transform="matrix(0.589727 0.807603 -0.45852 0.888684 -247.592 717.77)" stroke="#232323"
                  stroke-dasharray="2 2"/>
            <line y1="-0.5" x2="454.708" y2="-0.5"
                  transform="matrix(0.589727 0.807603 -0.45852 0.888684 -212.616 717.77)" stroke="#232323"
                  stroke-dasharray="2 2"/>
            <line y1="-0.5" x2="454.708" y2="-0.5"
                  transform="matrix(0.589727 0.807603 -0.45852 0.888684 -177.639 717.77)" stroke="#232323"
                  stroke-dasharray="2 2"/>
            <line y1="-0.5" x2="454.708" y2="-0.5"
                  transform="matrix(0.589727 0.807603 -0.45852 0.888684 -142.663 717.77)" stroke="#232323"
                  stroke-dasharray="2 2"/>
            <line y1="-0.5" x2="454.708" y2="-0.5"
                  transform="matrix(0.589727 0.807603 -0.45852 0.888684 -107.686 717.77)" stroke="#232323"
                  stroke-dasharray="2 2"/>
            <line y1="-0.5" x2="454.708" y2="-0.5"
                  transform="matrix(0.589727 0.807603 -0.45852 0.888684 -72.7095 717.77)" stroke="#232323"
                  stroke-dasharray="2 2"/>
            <line y1="-0.5" x2="454.708" y2="-0.5"
                  transform="matrix(0.589727 0.807603 -0.45852 0.888684 -37.7329 717.77)" stroke="#232323"
                  stroke-dasharray="2 2"/>
            <line y1="-0.5" x2="454.708" y2="-0.5"
                  transform="matrix(0.589727 0.807603 -0.45852 0.888684 -2.75635 717.77)" stroke="#232323"
                  stroke-dasharray="2 2"/>
            <line y1="-0.5" x2="454.708" y2="-0.5"
                  transform="matrix(0.589727 0.807603 -0.45852 0.888684 32.2202 717.77)" stroke="#232323"
                  stroke-dasharray="2 2"/>
            <line y1="-0.5" x2="454.708" y2="-0.5"
                  transform="matrix(0.589727 0.807603 -0.45852 0.888684 67.1968 717.77)" stroke="#232323"
                  stroke-dasharray="2 2"/>
            <line y1="-0.5" x2="454.708" y2="-0.5"
                  transform="matrix(0.589727 0.807603 -0.45852 0.888684 102.173 717.77)" stroke="#232323"
                  stroke-dasharray="2 2"/>
            <line y1="-0.5" x2="454.708" y2="-0.5" transform="matrix(0.589727 0.807603 -0.45852 0.888684 137.15 717.77)"
                  stroke="#232323" stroke-dasharray="2 2"/>
            <line y1="-0.5" x2="454.708" y2="-0.5"
                  transform="matrix(0.589727 0.807603 -0.45852 0.888684 172.126 717.77)" stroke="#232323"
                  stroke-dasharray="2 2"/>
            <line y1="-0.5" x2="454.708" y2="-0.5"
                  transform="matrix(0.589727 0.807603 -0.45852 0.888684 207.103 717.77)" stroke="#232323"
                  stroke-dasharray="2 2"/>
            <line y1="-0.5" x2="454.708" y2="-0.5" transform="matrix(0.589727 0.807603 -0.45852 0.888684 242.08 717.77)"
                  stroke="#232323" stroke-dasharray="2 2"/>
            <line y1="-0.5" x2="454.708" y2="-0.5"
                  transform="matrix(0.589727 0.807603 -0.45852 0.888684 277.056 717.77)" stroke="#232323"
                  stroke-dasharray="2 2"/>
            <line y1="-0.5" x2="454.708" y2="-0.5"
                  transform="matrix(0.589727 0.807603 -0.45852 0.888684 312.033 717.77)" stroke="#232323"
                  stroke-dasharray="2 2"/>
            <line y1="-0.5" x2="454.708" y2="-0.5"
                  transform="matrix(0.589727 0.807603 -0.45852 0.888684 347.009 717.77)" stroke="#232323"
                  stroke-dasharray="2 2"/>
            <line y1="-0.5" x2="454.708" y2="-0.5"
                  transform="matrix(0.589727 0.807603 -0.45852 0.888684 381.985 717.77)" stroke="#232323"
                  stroke-dasharray="2 2"/>
            <line y1="-0.5" x2="454.708" y2="-0.5"
                  transform="matrix(0.589727 0.807603 -0.45852 0.888684 416.962 717.77)" stroke="#232323"
                  stroke-dasharray="2 2"/>
            <line y1="-0.5" x2="454.708" y2="-0.5"
                  transform="matrix(0.589727 0.807603 -0.45852 0.888684 451.939 717.77)" stroke="#232323"
                  stroke-dasharray="2 2"/>
            <line y1="-0.5" x2="454.708" y2="-0.5"
                  transform="matrix(0.589727 0.807603 -0.45852 0.888684 -235.047 351.227)" stroke="#232323"
                  stroke-dasharray="2 2"/>
            <line y1="-0.5" x2="454.708" y2="-0.5"
                  transform="matrix(0.589727 0.807603 -0.45852 0.888684 -200.07 351.227)" stroke="#232323"
                  stroke-dasharray="2 2"/>
            <line y1="-0.5" x2="454.708" y2="-0.5"
                  transform="matrix(0.589727 0.807603 -0.45852 0.888684 -165.094 351.227)" stroke="#232323"
                  stroke-dasharray="2 2"/>
            <line y1="-0.5" x2="454.708" y2="-0.5"
                  transform="matrix(0.589727 0.807603 -0.45852 0.888684 -130.117 351.227)" stroke="#232323"
                  stroke-dasharray="2 2"/>
            <line y1="-0.5" x2="454.708" y2="-0.5"
                  transform="matrix(0.589727 0.807603 -0.45852 0.888684 -95.1406 351.227)" stroke="#232323"
                  stroke-dasharray="2 2"/>
            <line y1="-0.5" x2="454.708" y2="-0.5"
                  transform="matrix(0.589727 0.807603 -0.45852 0.888684 -60.1641 351.227)" stroke="#232323"
                  stroke-dasharray="2 2"/>
            <line y1="-0.5" x2="454.708" y2="-0.5"
                  transform="matrix(0.589727 0.807603 -0.45852 0.888684 -25.1875 351.227)" stroke="#232323"
                  stroke-dasharray="2 2"/>
            <line y1="-0.5" x2="454.708" y2="-0.5"
                  transform="matrix(0.589727 0.807603 -0.45852 0.888684 9.78906 351.227)" stroke="#232323"
                  stroke-dasharray="2 2"/>
            <line y1="-0.5" x2="454.708" y2="-0.5"
                  transform="matrix(0.589727 0.807603 -0.45852 0.888684 44.7651 351.227)" stroke="#232323"
                  stroke-dasharray="2 2"/>
            <line y1="-0.5" x2="454.708" y2="-0.5"
                  transform="matrix(0.589727 0.807603 -0.45852 0.888684 79.7422 351.227)" stroke="#232323"
                  stroke-dasharray="2 2"/>
            <line y1="-0.5" x2="454.708" y2="-0.5"
                  transform="matrix(0.589727 0.807603 -0.45852 0.888684 114.719 351.227)" stroke="#232323"
                  stroke-dasharray="2 2"/>
            <line y1="-0.5" x2="454.708" y2="-0.5"
                  transform="matrix(0.589727 0.807603 -0.45852 0.888684 149.695 351.227)" stroke="#232323"
                  stroke-dasharray="2 2"/>
            <line y1="-0.5" x2="454.708" y2="-0.5"
                  transform="matrix(0.589727 0.807603 -0.45852 0.888684 184.672 351.227)" stroke="#232323"
                  stroke-dasharray="2 2"/>
            <line y1="-0.5" x2="454.708" y2="-0.5"
                  transform="matrix(0.589727 0.807603 -0.45852 0.888684 219.648 351.227)" stroke="#232323"
                  stroke-dasharray="2 2"/>
            <line y1="-0.5" x2="454.708" y2="-0.5"
                  transform="matrix(0.589727 0.807603 -0.45852 0.888684 254.625 351.227)" stroke="#232323"
                  stroke-dasharray="2 2"/>
            <line y1="-0.5" x2="454.708" y2="-0.5"
                  transform="matrix(0.589727 0.807603 -0.45852 0.888684 289.602 351.227)" stroke="#232323"
                  stroke-dasharray="2 2"/>
            <line y1="-0.5" x2="454.708" y2="-0.5"
                  transform="matrix(0.589727 0.807603 -0.45852 0.888684 324.578 351.227)" stroke="#232323"
                  stroke-dasharray="2 2"/>
            <line y1="-0.5" x2="454.708" y2="-0.5"
                  transform="matrix(0.589727 0.807603 -0.45852 0.888684 359.554 351.227)" stroke="#232323"
                  stroke-dasharray="2 2"/>
            <line y1="-0.5" x2="454.708" y2="-0.5"
                  transform="matrix(0.589727 0.807603 -0.45852 0.888684 394.531 351.227)" stroke="#232323"
                  stroke-dasharray="2 2"/>
            <line y1="-0.5" x2="454.708" y2="-0.5"
                  transform="matrix(0.589727 0.807603 -0.45852 0.888684 429.508 351.227)" stroke="#232323"
                  stroke-dasharray="2 2"/>
            <line y1="-0.5" x2="454.708" y2="-0.5"
                  transform="matrix(0.589727 0.807603 -0.45852 0.888684 464.484 351.227)" stroke="#232323"
                  stroke-dasharray="2 2"/>
            <line y1="-0.5" x2="454.708" y2="-0.5" transform="matrix(0.589727 0.807603 -0.45852 0.888684 -258.365 -16)"
                  stroke="#232323" stroke-dasharray="2 2"/>
            <line y1="-0.5" x2="454.708" y2="-0.5" transform="matrix(0.589727 0.807603 -0.45852 0.888684 -223.388 -16)"
                  stroke="#232323" stroke-dasharray="2 2"/>
            <line y1="-0.5" x2="454.708" y2="-0.5" transform="matrix(0.589727 0.807603 -0.45852 0.888684 -188.411 -16)"
                  stroke="#232323" stroke-dasharray="2 2"/>
            <line y1="-0.5" x2="454.708" y2="-0.5" transform="matrix(0.589727 0.807603 -0.45852 0.888684 -153.435 -16)"
                  stroke="#232323" stroke-dasharray="2 2"/>
            <line y1="-0.5" x2="454.708" y2="-0.5" transform="matrix(0.589727 0.807603 -0.45852 0.888684 -118.458 -16)"
                  stroke="#232323" stroke-dasharray="2 2"/>
            <line y1="-0.5" x2="454.708" y2="-0.5" transform="matrix(0.589727 0.807603 -0.45852 0.888684 -83.4814 -16)"
                  stroke="#232323" stroke-dasharray="2 2"/>
            <line y1="-0.5" x2="454.708" y2="-0.5" transform="matrix(0.589727 0.807603 -0.45852 0.888684 -48.5054 -16)"
                  stroke="#232323" stroke-dasharray="2 2"/>
            <line y1="-0.5" x2="454.708" y2="-0.5" transform="matrix(0.589727 0.807603 -0.45852 0.888684 -13.5283 -16)"
                  stroke="#232323" stroke-dasharray="2 2"/>
            <line y1="-0.5" x2="454.708" y2="-0.5" transform="matrix(0.589727 0.807603 -0.45852 0.888684 21.4482 -16)"
                  stroke="#232323" stroke-dasharray="2 2"/>
            <line y1="-0.5" x2="454.708" y2="-0.5" transform="matrix(0.589727 0.807603 -0.45852 0.888684 56.4243 -16)"
                  stroke="#232323" stroke-dasharray="2 2"/>
            <line y1="-0.5" x2="454.708" y2="-0.5" transform="matrix(0.589727 0.807603 -0.45852 0.888684 91.4014 -16)"
                  stroke="#232323" stroke-dasharray="2 2"/>
            <line y1="-0.5" x2="454.708" y2="-0.5" transform="matrix(0.589727 0.807603 -0.45852 0.888684 126.377 -16)"
                  stroke="#232323" stroke-dasharray="2 2"/>
            <line y1="-0.5" x2="454.708" y2="-0.5" transform="matrix(0.589727 0.807603 -0.45852 0.888684 161.354 -16)"
                  stroke="#232323" stroke-dasharray="2 2"/>
            <line y1="-0.5" x2="454.708" y2="-0.5" transform="matrix(0.589727 0.807603 -0.45852 0.888684 196.331 -16)"
                  stroke="#232323" stroke-dasharray="2 2"/>
            <line y1="-0.5" x2="454.708" y2="-0.5" transform="matrix(0.589727 0.807603 -0.45852 0.888684 231.307 -16)"
                  stroke="#232323" stroke-dasharray="2 2"/>
            <line y1="-0.5" x2="454.708" y2="-0.5" transform="matrix(0.589727 0.807603 -0.45852 0.888684 266.284 -16)"
                  stroke="#232323" stroke-dasharray="2 2"/>
            <line y1="-0.5" x2="454.708" y2="-0.5" transform="matrix(0.589727 0.807603 -0.45852 0.888684 301.261 -16)"
                  stroke="#232323" stroke-dasharray="2 2"/>
            <line y1="-0.5" x2="454.708" y2="-0.5" transform="matrix(0.589727 0.807603 -0.45852 0.888684 336.237 -16)"
                  stroke="#232323" stroke-dasharray="2 2"/>
            <line y1="-0.5" x2="454.708" y2="-0.5" transform="matrix(0.589727 0.807603 -0.45852 0.888684 371.213 -16)"
                  stroke="#232323" stroke-dasharray="2 2"/>
            <line y1="-0.5" x2="454.708" y2="-0.5" transform="matrix(0.589727 0.807603 -0.45852 0.888684 406.19 -16)"
                  stroke="#232323" stroke-dasharray="2 2"/>
            <line y1="-0.5" x2="454.708" y2="-0.5" transform="matrix(0.589727 0.807603 -0.45852 0.888684 441.167 -16)"
                  stroke="#232323" stroke-dasharray="2 2"/>
            <line y1="-0.5" x2="454.708" y2="-0.5" transform="matrix(0.589727 0.807603 -0.45852 0.888684 476.143 -16)"
                  stroke="#232323" stroke-dasharray="2 2"/>
        </g>
    </g>
    <defs>
        <clipPath id="clip0_665_4">
            <rect width="486" height="1069" fill="white"/>
        </clipPath>
    </defs>
</svg>
