<svg width="354" height="77" viewBox="0 0 354 77" fill="none" xmlns="http://www.w3.org/2000/svg">
    <g clip-path="url(#clip0_651_1472)">
        <path d="M347.79 0.785156H6.21058C3.20935 0.785156 0.776367 3.24759 0.776367 6.28516V70.7137C0.776367 73.7513 3.20935 76.2137 6.21058 76.2137H347.79C350.791 76.2137 353.224 73.7513 353.224 70.7137V6.28516C353.224 3.24759 350.791 0.785156 347.79 0.785156Z"
              fill="white" stroke="url(#paint0_linear_651_1472)" stroke-width="3"/>
        <path d="M79.759 18.8555C75.2457 18.8555 70.3259 21.2385 65.1256 25.9327C62.6587 28.1569 60.528 30.5401 58.9302 32.4466C58.9302 32.4466 58.9302 32.4466 58.9441 32.4611V32.4466C58.9441 32.4466 61.4672 35.2775 64.2565 38.3105C65.7563 36.4764 67.9149 33.9776 70.3959 31.7245C75.0215 27.5503 78.035 26.6692 79.759 26.6692C86.2489 26.6692 91.5191 31.97 91.5191 38.4839C91.5191 44.9545 86.2349 50.2551 79.759 50.2985C79.4648 50.2985 79.0863 50.2551 78.6098 50.1541C80.502 50.9918 82.5344 51.5984 84.4688 51.5984C96.355 51.5984 98.6817 43.6113 98.8359 43.0336C99.1863 41.5747 99.3686 40.0438 99.3686 38.4694C99.3686 27.6658 90.566 18.8555 79.759 18.8555Z"
              fill="url(#paint1_linear_651_1472)"/>
        <path d="M38.2408 58.1441C42.7543 58.1441 47.6741 55.761 52.8743 51.0668C55.3413 48.8426 57.4718 46.4594 59.0698 44.553C59.0698 44.553 59.0698 44.553 59.0558 44.5385V44.553C59.0558 44.553 56.5328 41.722 53.7433 38.689C52.2436 40.5233 50.085 43.0219 47.6041 45.2752C42.9785 49.4492 39.965 50.3303 38.2408 50.3303C31.7511 50.3159 26.4807 45.0151 26.4807 38.5012C26.4807 32.0306 31.7651 26.73 38.2408 26.6866C38.5352 26.6866 38.9137 26.73 39.3902 26.831C37.498 25.9933 35.4654 25.3867 33.5312 25.3867C21.645 25.3867 19.3322 33.3738 19.1641 33.9372C18.8136 35.4104 18.6313 36.927 18.6313 38.5012C18.6313 49.3337 27.4338 58.1441 38.2408 58.1441Z"
              fill="url(#paint2_linear_651_1472)"/>
        <path d="M84.4408 51.4251C78.3574 51.2662 72.0358 46.3266 70.7462 45.099C67.4102 41.9214 59.7151 33.3277 59.1124 32.6488C53.4776 26.135 45.8384 18.8555 38.2413 18.8555H38.2273H38.2133C28.9902 18.8988 21.239 25.3404 19.1646 33.9343C19.3187 33.3709 22.3603 25.2249 33.5177 25.5138C39.6009 25.6726 45.9506 30.6846 47.2541 31.9122C50.5901 35.0897 58.2854 43.6836 58.888 44.3623C64.5228 50.8619 72.1619 58.1412 79.7591 58.1412H79.7731H79.7871C89.0102 58.098 96.7755 51.6562 98.836 43.0624C98.6677 43.6257 95.6121 51.6996 84.4408 51.4251Z"
              fill="#29ABE2"/>
        <path d="M122.187 47.9197C122.616 47.9197 122.964 47.568 122.964 47.134V36.6607C122.964 36.2267 122.616 35.875 122.187 35.875H121.364C120.936 35.875 120.588 36.2267 120.588 36.6607V47.134C120.588 47.568 120.936 47.9197 121.364 47.9197H122.187Z"
              fill="#161617"/>
        <path d="M137.98 47.9197C138.409 47.9197 138.756 47.568 138.756 47.134V36.6607C138.756 36.2267 138.409 35.875 137.98 35.875H137.191C136.762 35.875 136.415 36.2267 136.415 36.6607V43.8425L131.866 36.6032C131.581 36.1497 131.087 35.875 130.556 35.875H129.266C128.837 35.875 128.49 36.2267 128.49 36.6607V47.134C128.49 47.568 128.837 47.9197 129.266 47.9197H130.055C130.484 47.9197 130.832 47.568 130.832 47.134V39.3746L136.066 47.5609C136.209 47.7847 136.455 47.9197 136.718 47.9197H137.98Z"
              fill="#161617"/>
        <path d="M152.344 38.1005C152.773 38.1005 153.121 37.7486 153.121 37.3147V36.6607C153.121 36.2267 152.773 35.875 152.344 35.875H143.936C143.507 35.875 143.16 36.2267 143.16 36.6607V37.3147C143.16 37.7486 143.507 38.1005 143.936 38.1005H146.961V47.134C146.961 47.568 147.308 47.9197 147.737 47.9197H148.543C148.972 47.9197 149.32 47.568 149.32 47.134V38.1005H152.344Z"
              fill="#161617"/>
        <path d="M164.276 47.9197C164.706 47.9197 165.052 47.568 165.052 47.134V46.4969C165.052 46.063 164.706 45.7112 164.276 45.7112H159.86V42.9251H163.785C164.214 42.9251 164.562 42.5734 164.562 42.1393V41.6212C164.562 41.1874 164.214 40.8355 163.785 40.8355H159.86V38.0835H164.276C164.706 38.0835 165.052 37.7316 165.052 37.2978V36.6607C165.052 36.2267 164.706 35.875 164.276 35.875H158.295C157.866 35.875 157.519 36.2267 157.519 36.6607V47.134C157.519 47.568 157.866 47.9197 158.295 47.9197H164.276Z"
              fill="#161617"/>
        <path d="M175.784 47.4937C175.916 47.7553 176.183 47.9197 176.473 47.9197H177.322C177.908 47.9197 178.283 47.2894 178.008 46.7661L176.034 42.9931C177.611 42.5344 178.595 41.2603 178.595 39.5784C178.595 37.4889 177.103 35.875 174.76 35.875H170.837C170.408 35.875 170.061 36.2267 170.061 36.6607V47.134C170.061 47.568 170.408 47.9197 170.837 47.9197H171.643C172.071 47.9197 172.419 47.568 172.419 47.134V43.2819H173.641L175.784 47.4937ZM172.419 41.2603V37.9136H174.319C175.507 37.9136 176.203 38.5761 176.203 39.5954C176.203 40.5808 175.507 41.2603 174.319 41.2603H172.419Z"
              fill="#161617"/>
        <path d="M192.955 47.9197C193.383 47.9197 193.731 47.568 193.731 47.134V36.6607C193.731 36.2267 193.383 35.875 192.955 35.875H192.166C191.737 35.875 191.389 36.2267 191.389 36.6607V43.8425L186.84 36.6032C186.556 36.1497 186.062 35.875 185.531 35.875H184.241C183.813 35.875 183.465 36.2267 183.465 36.6607V47.134C183.465 47.568 183.813 47.9197 184.241 47.9197H185.03C185.458 47.9197 185.806 47.568 185.806 47.134V39.3746L191.042 47.5609C191.185 47.7847 191.43 47.9197 191.692 47.9197H192.955Z"
              fill="#161617"/>
        <path d="M206.029 47.9197C206.458 47.9197 206.805 47.568 206.805 47.134V46.4969C206.805 46.063 206.458 45.7112 206.029 45.7112H201.613V42.9251H205.537C205.965 42.9251 206.313 42.5734 206.313 42.1393V41.6212C206.313 41.1874 205.965 40.8355 205.537 40.8355H201.613V38.0835H206.029C206.458 38.0835 206.805 37.7316 206.805 37.2978V36.6607C206.805 36.2267 206.458 35.875 206.029 35.875H200.048C199.618 35.875 199.272 36.2267 199.272 36.6607V47.134C199.272 47.568 199.618 47.9197 200.048 47.9197H206.029Z"
              fill="#161617"/>
        <path d="M219.861 38.1005C220.29 38.1005 220.637 37.7486 220.637 37.3147V36.6607C220.637 36.2267 220.29 35.875 219.861 35.875H211.452C211.024 35.875 210.676 36.2267 210.676 36.6607V37.3147C210.676 37.7486 211.024 38.1005 211.452 38.1005H214.477V47.134C214.477 47.568 214.824 47.9197 215.253 47.9197H216.06C216.489 47.9197 216.837 47.568 216.837 47.134V38.1005H219.861Z"
              fill="#161617"/>
        <path d="M300.739 47.6619C301.168 47.6619 301.516 47.3102 301.516 46.8762V36.4029C301.516 35.9689 301.168 35.6172 300.739 35.6172H299.916C299.488 35.6172 299.14 35.9689 299.14 36.4029V46.8762C299.14 47.3102 299.488 47.6619 299.916 47.6619H300.739Z"
              fill="#161617"/>
        <path d="M235.011 47.6619C235.44 47.6619 235.788 47.3102 235.788 46.8762V36.4029C235.788 35.9689 235.44 35.6172 235.011 35.6172H234.188C233.76 35.6172 233.412 35.9689 233.412 36.4029V46.8762C233.412 47.3102 233.76 47.6619 234.188 47.6619H235.011Z"
              fill="#161617"/>
        <path d="M262.424 47.6619C262.854 47.6619 263.2 47.3102 263.2 46.8762V46.2391C263.2 45.8052 262.854 45.4534 262.424 45.4534H258.008V42.6672H261.932C262.362 42.6672 262.71 42.3156 262.71 41.8815V41.3634C262.71 40.9296 262.362 40.5777 261.932 40.5777H258.008V37.8257H262.424C262.854 37.8257 263.2 37.4738 263.2 37.04V36.4029C263.2 35.9689 262.854 35.6172 262.424 35.6172H256.443C256.014 35.6172 255.667 35.9689 255.667 36.4029V46.8762C255.667 47.3102 256.014 47.6619 256.443 47.6619H262.424Z"
              fill="#161617"/>
        <path d="M278.095 47.6619C278.523 47.6619 278.871 47.3102 278.871 46.8762V36.4029C278.871 35.9689 278.523 35.6172 278.095 35.6172H277.306C276.877 35.6172 276.53 35.9689 276.53 36.4029V43.5846L271.98 36.3454C271.696 35.8919 271.203 35.6172 270.672 35.6172H269.381C268.953 35.6172 268.605 35.9689 268.605 36.4029V46.8762C268.605 47.3102 268.953 47.6619 269.381 47.6619H270.17C270.599 47.6619 270.946 47.3102 270.946 46.8762V39.1168L276.182 47.3031C276.325 47.5269 276.57 47.6619 276.832 47.6619H278.095Z"
              fill="#161617"/>
        <path d="M316.089 37.8426C316.517 37.8426 316.865 37.4908 316.865 37.0569V36.4029C316.865 35.9689 316.517 35.6172 316.089 35.6172H307.68C307.251 35.6172 306.903 35.9689 306.903 36.4029V37.0569C306.903 37.4908 307.251 37.8426 307.68 37.8426H310.704V46.8762C310.704 47.3102 311.052 47.6619 311.48 47.6619H312.288C312.716 47.6619 313.064 47.3102 313.064 46.8762V37.8426H316.089Z"
              fill="#161617"/>
        <path d="M293.317 37.8426C293.745 37.8426 294.093 37.4908 294.093 37.0569V36.4029C294.093 35.9689 293.745 35.6172 293.317 35.6172H284.908C284.479 35.6172 284.131 35.9689 284.131 36.4029V37.0569C284.131 37.4908 284.479 37.8426 284.908 37.8426H287.932V46.8762C287.932 47.3102 288.28 47.6619 288.709 47.6619H289.516C289.944 47.6619 290.292 47.3102 290.292 46.8762V37.8426H293.317Z"
              fill="#161617"/>
        <path d="M244.332 47.6648V45.5483H243.517C243.517 41.0034 243.504 42.8879 243.504 37.6251H244.281V35.6172H241.952C241.523 35.6172 241.175 35.9542 241.175 36.3702V46.9118C241.175 47.3278 241.523 47.6648 241.952 47.6648H244.332Z"
              fill="#161617"/>
        <path d="M244.08 35.617C242.654 35.6164 240.703 35.617 244.08 35.617C244.08 35.617 244.022 36.766 244.022 37.6244C244.022 36.6468 244.022 36.6423 244.022 37.6244C245.956 37.6244 247.813 39.1662 247.813 41.6246C247.813 44.2457 245.913 45.545 244.115 45.545C244.115 46.816 244.115 46.722 244.115 45.545L244.115 47.6477C244.115 46.5648 244.115 46.0746 244.115 47.6641C247.338 47.6641 250.24 45.3039 250.24 41.6246C250.24 37.9452 247.44 35.617 244.08 35.617Z"
              fill="#161617"/>
        <path d="M325.919 43.4319L321.912 36.1056L322.246 35.6172H323.916L327.088 41.3154L330.26 35.6172H331.929L332.263 36.1056L328.256 43.4319V47.1764L327.922 47.6648H326.253L325.919 47.1764V43.4319Z"
              fill="#161617"/>
    </g>
    <defs>
        <linearGradient id="paint0_linear_651_1472" x1="52.0589" y1="11.323" x2="74.871" y2="116.199"
                        gradientUnits="userSpaceOnUse">
            <stop stop-color="#ED1E79"/>
            <stop offset="1" stop-color="#522785"/>
        </linearGradient>
        <linearGradient id="paint1_linear_651_1472" x1="69.5513" y1="21.4458" x2="97.0404" y2="49.0711"
                        gradientUnits="userSpaceOnUse">
            <stop offset="0.21" stop-color="#F15A24"/>
            <stop offset="0.6841" stop-color="#FBB03B"/>
        </linearGradient>
        <linearGradient id="paint2_linear_651_1472" x1="48.4487" y1="55.5537" x2="20.9595" y2="27.9286"
                        gradientUnits="userSpaceOnUse">
            <stop offset="0.21" stop-color="#ED1E79"/>
            <stop offset="0.8929" stop-color="#522785"/>
        </linearGradient>
        <clipPath id="clip0_651_1472">
            <rect width="354" height="77" fill="white"/>
        </clipPath>
    </defs>
</svg>
